<?xml version="1.0" encoding="UTF-8" standalone="no"?>
<!DOCTYPE svg PUBLIC "-//W3C//DTD SVG 1.1//EN"
 "http://www.w3.org/Graphics/SVG/1.1/DTD/svg11.dtd">
<!-- Generated by graphviz version 2.43.0 (0)
 -->
<!-- Title: Graphical Class Hierarchy Pages: 1 -->
<svg width="360pt" height="94pt"
 viewBox="0.00 0.00 360.00 94.00" xmlns="http://www.w3.org/2000/svg" xmlns:xlink="http://www.w3.org/1999/xlink">
<g id="graph0" class="graph" transform="scale(1 1) rotate(0) translate(4 90)">
<title>Graphical Class Hierarchy</title>
<!-- Node0 -->
<g id="Node000000" class="node">
<title>Node0</title>
<g id="a_Node000000"><a xlink:title=" ">
<polygon fill="#e0e0e0" stroke="#999999" points="166,-86 0,-86 0,-52 166,-52 166,-86"/>
<text text-anchor="start" x="8" y="-72.4" font-family="Helvetica,sans-Serif" font-size="12.00">llh::mutexed::details</text>
<text text-anchor="middle" x="83" y="-59.4" font-family="Helvetica,sans-Serif" font-size="12.00">::mutexed_base&lt; M, H &gt;</text>
</a>
</g>
</g>
<!-- Node1 -->
<g id="Node000001" class="node">
<title>Node1</title>
<g id="a_Node000001"><a xlink:href="classllh_1_1mutexed_1_1Mutexed.html" target="_top" xlink:title="The Mutexed class is a value&#45;wrapper that protects its value with a mutex that will be referred to in...">
<polygon fill="white" stroke="#666666" points="352,-60 202,-60 202,-26 352,-26 352,-60"/>
<text text-anchor="start" x="210" y="-46.4" font-family="Helvetica,sans-Serif" font-size="12.00">llh::mutexed::Mutexed</text>
<text text-anchor="middle" x="277" y="-33.4" font-family="Helvetica,sans-Serif" font-size="12.00">&lt; T, M, H &gt;</text>
</a>
</g>
</g>
<!-- Node0&#45;&gt;Node1 -->
<g id="edge1_Node000000_Node000001" class="edge">
<title>Node0&#45;&gt;Node1</title>
<g id="a_edge1_Node000000_Node000001"><a xlink:title=" ">
<path fill="none" stroke="#8b1a1a" d="M176.27,-56.5C184.83,-55.35 193.43,-54.18 201.8,-53.05"/>
<polygon fill="#8b1a1a" stroke="#8b1a1a" points="175.7,-53.05 166.26,-57.86 176.64,-59.99 175.7,-53.05"/>
</a>
</g>
</g>
<!-- Node2 -->
<g id="Node000002" class="node">
<title>Node2</title>
<g id="a_Node000002"><a xlink:title=" ">
<polygon fill="#e0e0e0" stroke="#999999" points="151.5,-34 14.5,-34 14.5,0 151.5,0 151.5,-34"/>
<text text-anchor="start" x="22.5" y="-20.4" font-family="Helvetica,sans-Serif" font-size="12.00">llh::mutexed::details</text>
<text text-anchor="middle" x="83" y="-7.4" font-family="Helvetica,sans-Serif" font-size="12.00">::mutexed_tag</text>
</a>
</g>
</g>
<!-- Node2&#45;&gt;Node1 -->
<g id="edge2_Node000002_Node000001" class="edge">
<title>Node2&#45;&gt;Node1</title>
<g id="a_edge2_Node000002_Node000001"><a xlink:title=" ">
<path fill="none" stroke="#8b1a1a" d="M161.69,-27.52C174.91,-29.31 188.61,-31.17 201.74,-32.94"/>
<polygon fill="#8b1a1a" stroke="#8b1a1a" points="162.07,-24.04 151.69,-26.17 161.13,-30.98 162.07,-24.04"/>
</a>
</g>
</g>
</g>
</svg>
